# xmcd
#
# Track frame offsets: 
#        150
#        11790
#        23440
#        36675
#        46780
#        59612
#        73682
#        87232
#        99987
#
# Disc length: 1515 seconds
#
# Revision: 1
# Processed by: cddbd v1.5.2PL0 Copyright (c) Steve Scherf et al.
# Submitted via: ExactAudioCopy v0.95a5
#
DISCID=7105e909
DTITLE=Lacy J. Dalton - The Best Of
DYEAR=1989
DGENRE=Country
TTITLE0=Hard Times
TTITLE1=Late Night Kind of Lonesome
TTITLE2=Crazy Blue Eyes
TTITLE3=Baby You Can Rock With Me
TTITLE4=Don't Fall in Love With Me
TTITLE5=16th Avenue
TTITLE6=Whisper
TTITLE7=If That Ain't Love
TTITLE8=Feedin' The Fire
EXTD=\n\n                                                             
EXTD=           Les
EXTT0=
EXTT1=
EXTT2=
EXTT3=
EXTT4=
EXTT5=
EXTT6=
EXTT7=
EXTT8=
PLAYORDER=
